<svg version="1.1" viewBox="0.0 0.0 384.0839895013123 48.0" fill="none" stroke="none" stroke-linecap="square" stroke-miterlimit="10" xmlns:xlink="http://www.w3.org/1999/xlink" xmlns="http://www.w3.org/2000/svg"><clipPath id="p.0"><path d="m0 0l384.08398 0l0 48.0l-384.08398 0l0 -48.0z" clip-rule="nonzero"/></clipPath><g clip-path="url(#p.0)"><path fill="#000000" fill-opacity="0.0" d="m0 0l384.08398 0l0 48.0l-384.08398 0z" fill-rule="evenodd"/><path fill="#000000" fill-opacity="0.0" d="m-0.70866144 -13.124699l385.4173 0l0 73.98425l-385.4173 0z" fill-rule="evenodd"/><path fill="#2f2f41" d="m23.461458 3.004627q11.046877 0 16.421877 5.015625q5.390625 5.015625 5.390625 14.390625q0 6.09375 -2.640625 10.671875q-2.625 4.5625 -7.65625 7.09375q-5.015627 2.515625 -12.015627 2.515625q-0.890625 0 -2.359375 -0.046875q-1.453125 -0.0625 -3.03125 -0.09375q-1.5625 -0.03125 -2.796874 -0.03125q-2.453125 0 -4.84375 0.03125q-2.3750005 0.03125 -3.7812505 0.140625l0 -1.125q1.796875 -0.109375 2.6875005 -0.4375q0.90625 -0.34375 1.203125 -1.34375q0.3125 -1.015625 0.3125 -3.03125l0 -27.796875q0 -2.0781255 -0.3125 -3.0625005q-0.296875 -0.984375 -1.234375 -1.34375q-0.9218755 -0.359375 -2.6562505 -0.421875l0 -1.1249998q1.40625 0.0625 3.7812505 0.15625q2.390625 0.078125 4.734375 0.015625q2.015624 -0.046875 4.562499 -0.109375q2.5625 -0.0625 4.234375 -0.0625zm-0.046875 1.0156248q-2.578125 0 -3.375 0.953125q-0.78125 0.953125 -0.78125 3.8593755l0 28.03125q0 2.90625 0.8125 3.859375q0.8125 0.953125 3.390625 0.953125q4.71875 0 7.4375 -2.203125q2.718752 -2.21875 3.890627 -6.46875q1.171875 -4.265625 1.171875 -10.375q0 -6.28125 -1.265625 -10.390625q-1.25 -4.125 -4.000002 -6.1718755q-2.75 -2.046875 -7.28125 -2.046875zm33.006287 39.0625q-2.515625 0 -4.203125 -0.953125q-1.6875 -0.953125 -2.46875 -2.546875q-0.78125 -1.59375 -0.78125 -3.5q0 -2.421875 1.09375 -3.921875q1.09375 -1.515625 2.828125 -2.46875q1.734375 -0.953125 3.671875 -1.5625q1.9375 -0.625 3.703125 -1.203125q1.765625 -0.59375 2.859375 -1.40625q1.0937462 -0.8125 1.0937462 -2.109375l0 -4.375q0 -1.453125 -0.4843712 -2.59375q-0.46875 -1.15625 -1.453125 -1.765625q-0.984375 -0.625 -2.546875 -0.625q-1.125 0 -2.25 0.3125q-1.109375 0.296875 -1.84375 1.03125q1.5625 0.5625 2.4375 1.71875q0.875 1.140625 0.875 2.59375q0 1.90625 -1.328125 3.03125q-1.3125 1.125 -3.109375 1.125q-2.015625 0 -3.0625 -1.265625q-1.03125 -1.265625 -1.03125 -3.046875q0 -1.625 0.8125 -2.6875q0.8125 -1.078125 2.28125 -2.03125q1.5625 -0.890625 3.765625 -1.390625q2.21875 -0.515625 4.796875 -0.515625q2.5781212 0 4.656246 0.53125q2.078125 0.53125 3.46875 1.9375q1.296875 1.296875 1.6875 3.171875q0.390625 1.875 0.390625 4.734375l0 15.25q0 1.390625 0.28125 1.921875q0.28125 0.53125 0.953125 0.53125q0.5 0 0.96875 -0.265625q0.484375 -0.28125 1.046875 -0.6875l0.5625 0.953125q-1.171875 1.015625 -2.71875 1.546875q-1.53125 0.53125 -3.4375 0.53125q-2.078125 0 -3.3125 -0.578125q-1.234375 -0.59375 -1.765625 -1.59375q-0.53125 -1.015625 -0.53125 -2.359375q-1.3437462 2.125 -3.2499962 3.328125q-1.90625 1.203125 -4.65625 1.203125zm3.984375 -3.578125q1.125 0 2.046875 -0.53125q0.921875 -0.546875 1.7656212 -1.78125l0 -11.484375q-0.5156212 0.84375 -1.4062462 1.515625q-0.890625 0.671875 -1.90625 1.375q-1.015625 0.703125 -1.9375 1.546875q-0.921875 0.828125 -1.484375 2.0625q-0.5625 1.234375 -0.5625 2.96875q0 2.1875 0.953125 3.265625q0.953125 1.0625 2.53125 1.0625zm38.15733 -26.578125q2.359375 0 3.84375 0.59375q1.484375 0.59375 2.328125 1.59375q0.890625 1.0625 1.3125 2.75q0.421875 1.6875 0.421875 4.546875l0 15.0625q0 2.359375 0.8125 3.203125q0.8125 0.84375 2.78125 0.84375l0 1.171875q-1.0625 -0.0625 -3.203125 -0.140625q-2.125 -0.078125 -4.203125 -0.078125q-2.125 0 -4.171875 0.078125q-2.046875 0.078125 -3.109375 0.140625l0 -1.171875q1.6875 0 2.359375 -0.84375q0.671875 -0.84375 0.671875 -3.203125l0 -17.421875q0 -1.40625 -0.28125 -2.4375q-0.28125 -1.046875 -1.015625 -1.625q-0.71875 -0.59375 -2.1875 -0.59375q-1.515625 0 -2.78125 0.84375q-1.25 0.84375 -2.015625 2.328125q-0.75 1.484375 -0.75 3.328125l0 15.578125q0 2.359375 0.703125 3.203125q0.703125 0.84375 2.328125 0.84375l0 1.171875q-1.015625 -0.0625 -2.953125 -0.140625q-1.921875 -0.078125 -4.0 -0.078125q-2.125 0 -4.375 0.078125q-2.234375 0.078125 -3.359375 0.140625l0 -1.171875q1.96875 0 2.78125 -0.84375q0.8125 -0.84375 0.8125 -3.203125l0 -17.640625q0 -2.53125 -0.765625 -3.734375q-0.75 -1.203125 -2.828125 -1.203125l0 -1.171875q1.796875 0.15625 3.46875 0.15625q2.359375 0 4.40625 -0.1875q2.046875 -0.203125 3.78125 -0.59375l0 5.046875q1.40625 -2.859375 3.8125 -4.03125q2.40625 -1.1875 5.375 -1.1875zm28.147217 0q2.1875 0 4.0 0.484375q1.828125 0.46875 3.0 1.203125q1.453125 0.890625 2.265625 2.21875q0.8125 1.3125 0.8125 3.046875q0 1.96875 -1.234375 3.234375q-1.21875 1.25 -3.1875 1.25q-1.96875 0 -3.140625 -1.109375q-1.171875 -1.125 -1.171875 -3.03125q0 -1.796875 1.109375 -3.0q1.125 -1.203125 2.59375 -1.609375q-0.453125 -0.546875 -1.359375 -0.9375q-0.890625 -0.40625 -2.015625 -0.40625q-1.734375 0 -3.046875 1.015625q-1.3125 1.015625 -2.21875 2.8125q-0.890625 1.78125 -1.375 4.203125q-0.46875 2.40625 -0.46875 5.265625q0 4.3125 1.09375 6.78125q1.09375 2.453125 2.796875 3.46875q1.703125 1.0 3.5625 1.0q1.0625 0 2.3125 -0.328125q1.265625 -0.34375 2.578125 -1.34375q1.328125 -1.015625 2.453125 -2.859375l0.953125 0.328125q-0.625 2.078125 -2.03125 4.15625q-1.390625 2.078125 -3.640625 3.390625q-2.234375 1.3125 -5.484375 1.3125q-3.640625 0 -6.59375 -1.59375q-2.9375 -1.59375 -4.703125 -4.921875q-1.765625 -3.34375 -1.765625 -8.609375q0 -5.046875 1.8125 -8.484375q1.828125 -3.453125 4.96875 -5.1875q3.140625 -1.75 7.125 -1.75zm27.689926 0q4.921875 0 7.71875 2.921875q2.8125 2.90625 2.8125 9.53125l-18.4375 0l-0.109375 -1.078125l11.484375 0q0.0625 -2.734375 -0.34375 -5.0625q-0.390625 -2.328125 -1.234375 -3.71875q-0.828125 -1.40625 -2.234375 -1.40625q-1.96875 0 -3.34375 2.46875q-1.359375 2.453125 -1.640625 8.171875l0.171875 0.34375q-0.0625 0.671875 -0.09375 1.40625q-0.03125 0.71875 -0.03125 1.5q0 3.875 1.09375 6.28125q1.09375 2.40625 2.765625 3.5q1.6875 1.09375 3.4375 1.09375q1.171875 0 2.421875 -0.359375q1.265625 -0.375 2.546875 -1.34375q1.296875 -0.984375 2.421875 -2.78125l1.015625 0.34375q-0.671875 2.125 -2.140625 4.140625q-1.453125 2.015625 -3.703125 3.3125q-2.234375 1.28125 -5.375 1.28125q-3.8125 0 -6.734375 -1.625q-2.90625 -1.625 -4.5625 -4.921875q-1.640625 -3.3125 -1.640625 -8.421875q0 -5.203125 1.765625 -8.671875q1.765625 -3.484375 4.875 -5.1875q3.109375 -1.71875 7.09375 -1.71875z" fill-rule="nonzero"/><path fill="#e5261f" d="m189.08488 2.223377q5.9375 0 10.390625 2.4218748q4.46875 2.40625 6.921875 6.9218755q2.46875 4.5 2.46875 10.953125q0 6.265625 -2.53125 10.984375q-2.515625 4.703125 -7.03125 7.34375q-4.5 2.625 -10.28125 2.625q-5.9375 0 -10.390625 -2.40625q-4.453125 -2.40625 -6.921875 -6.9375q-2.46875 -4.546875 -2.46875 -10.9375q0 -6.28125 2.546875 -10.984375q2.5625 -4.7187505 7.015625 -7.3437505q4.453125 -2.6406248 10.28125 -2.6406248zm-0.21875 1.015625q-3.140625 0 -5.46875 2.5312498q-2.328125 2.5156255 -3.59375 6.9375005q-1.25 4.421875 -1.25 10.25q0 5.953125 1.421875 10.359375q1.4375 4.390625 3.875 6.78125q2.4375 2.375 5.40625 2.375q3.140625 0 5.453125 -2.515625q2.328125 -2.53125 3.59375 -6.984375q1.265625 -4.46875 1.265625 -10.234375q0 -6.0 -1.4375 -10.359375q-1.421875 -4.375 -3.859375 -6.7500005q-2.4375 -2.3906248 -5.40625 -2.3906248zm44.601486 9.6875q2.359375 0 3.84375 0.59375q1.484375 0.59375 2.328125 1.59375q0.890625 1.0625 1.3125 2.75q0.421875 1.6875 0.421875 4.546875l0 15.0625q0 2.359375 0.8125 3.203125q0.8125 0.84375 2.78125 0.84375l0 1.171875q-1.0625 -0.0625 -3.203125 -0.140625q-2.125 -0.078125 -4.203125 -0.078125q-2.125 0 -4.171875 0.078125q-2.046875 0.078125 -3.109375 0.140625l0 -1.171875q1.6875 0 2.359375 -0.84375q0.671875 -0.84375 0.671875 -3.203125l0 -17.421875q0 -1.40625 -0.28125 -2.4375q-0.28125 -1.046875 -1.015625 -1.625q-0.71875 -0.59375 -2.1875 -0.59375q-1.515625 0 -2.78125 0.84375q-1.25 0.84375 -2.015625 2.328125q-0.75 1.484375 -0.75 3.328125l0 15.578125q0 2.359375 0.703125 3.203125q0.703125 0.84375 2.328125 0.84375l0 1.171875q-1.015625 -0.0625 -2.953125 -0.140625q-1.921875 -0.078125 -4.0 -0.078125q-2.125 0 -4.375 0.078125q-2.234375 0.078125 -3.359375 0.140625l0 -1.171875q1.96875 0 2.78125 -0.84375q0.8125 -0.84375 0.8125 -3.203125l0 -17.640625q0 -2.53125 -0.765625 -3.734375q-0.75 -1.203125 -2.828125 -1.203125l0 -1.171875q1.796875 0.15625 3.46875 0.15625q2.359375 0 4.40625 -0.1875q2.046875 -0.203125 3.78125 -0.59375l0 5.046875q1.40625 -2.859375 3.8125 -4.03125q2.40625 -1.1875 5.375 -1.1875z" fill-rule="nonzero"/><path fill="#2f2f41" d="m281.67734 3.004627q-0.21875 2.8593748 -0.3125 5.5q-0.078125 2.640625 -0.078125 4.03125q0 1.234375 0.046875 2.359375q0.0625 1.125 0.125 1.90625l-1.296875 0q-0.890625 -4.71875 -2.265625 -7.453125q-1.375 -2.7500005 -3.28125 -3.8906255q-1.90625 -1.15625 -4.484375 -1.15625l-1.296875 0l0 32.0q0 2.25 0.46875 3.375q0.484375 1.109375 1.765625 1.484375q1.296875 0.359375 3.765625 0.40625l0 1.125q-1.734375 -0.0625 -4.625 -0.109375q-2.875 -0.0625 -6.015625 -0.0625q-3.09375 0 -5.84375 0.0625q-2.7343903 0.046875 -4.421875 0.109375l0 -1.125q2.53125 -0.046875 3.8125 -0.40625q1.296875 -0.375 1.734375 -1.484375q0.453125 -1.125 0.453125 -3.375l0 -32.0l-1.234375 0q-2.578125 0 -4.484375 1.15625q-1.90625 1.140625 -3.25 3.8593755q-1.34375 2.71875 -2.34375 7.484375l-1.296875 0q0.109375 -0.78125 0.140625 -1.90625q0.03125 -1.125 0.03125 -2.359375q0 -1.390625 -0.09375 -4.03125q-0.078125 -2.6406255 -0.296875 -5.5q2.578125 0.0625 5.625 0.125q3.0624847 0.046875 6.140625 0.046875q3.078125 0 5.546875 0q2.515625 0 5.5625 0q3.0625 0 6.140625 -0.046875q3.09375 -0.0625 5.5625 -0.125zm10.080017 -3.75q2.359375 0 3.734375 1.15625q1.375 1.140625 1.375 3.15625q0 2.0156248 -1.375 3.1718748q-1.375 1.140625 -3.734375 1.140625q-2.359375 0 -3.734375 -1.140625q-1.359375 -1.15625 -1.359375 -3.1718748q0 -2.015625 1.359375 -3.15625q1.375 -1.15625 3.734375 -1.15625zm4.375 13.84375l0 24.375q0 2.359375 0.8125 3.203125q0.8125 0.84375 2.78125 0.84375l0 1.171875q-1.015625 -0.0625 -3.140625 -0.140625q-2.125 -0.078125 -4.3125 -0.078125q-2.1875 0 -4.4375 0.078125q-2.234375 0.078125 -3.359375 0.140625l0 -1.171875q1.96875 0 2.78125 -0.84375q0.8125 -0.84375 0.8125 -3.203125l0 -17.640625q0 -2.53125 -0.765625 -3.734375q-0.75 -1.203125 -2.828125 -1.203125l0 -1.171875q1.796875 0.15625 3.46875 0.15625q2.359375 0 4.40625 -0.1875q2.046875 -0.203125 3.78125 -0.59375zm26.342285 -0.171875q2.359375 0 3.8125 0.59375q1.453125 0.59375 2.359375 1.59375q0.890625 1.0625 1.28125 2.78125q0.390625 1.703125 0.390625 4.515625l0 15.0625q0 2.359375 0.734375 3.203125q0.734375 0.84375 2.515625 0.84375l0 1.171875q-1.0 -0.0625 -3.046875 -0.140625q-2.046875 -0.078125 -4.015625 -0.078125q-2.015625 0 -3.984375 0.078125q-1.953125 0.078125 -2.953125 0.140625l0 -1.171875q1.5 0 2.09375 -0.84375q0.59375 -0.84375 0.59375 -3.203125l0 -17.421875q0 -1.40625 -0.234375 -2.4375q-0.21875 -1.046875 -0.859375 -1.625q-0.640625 -0.59375 -1.9375 -0.59375q-1.453125 0 -2.6875 0.84375q-1.234375 0.84375 -2.0 2.328125q-0.75 1.484375 -0.75 3.328125l0 15.578125q0 2.359375 0.609375 3.203125q0.625 0.84375 2.078125 0.84375l0 1.171875q-0.890625 -0.0625 -2.765625 -0.140625q-1.875 -0.078125 -3.84375 -0.078125q-2.125 0 -4.375 0.078125q-2.234375 0.078125 -3.359375 0.140625l0 -1.171875q1.96875 0 2.78125 -0.84375q0.8125 -0.84375 0.8125 -3.203125l0 -17.640625q0 -2.53125 -0.765625 -3.734375q-0.75 -1.203125 -2.828125 -1.203125l0 -1.171875q1.796875 0.15625 3.46875 0.15625q2.359375 0 4.40625 -0.1875q2.046875 -0.203125 3.78125 -0.59375l0 5.046875q1.34375 -2.796875 3.640625 -4.0q2.296875 -1.21875 5.046875 -1.21875zm16.875 0q2.359375 0 3.8125 0.59375q1.453125 0.59375 2.34375 1.59375q0.90625 1.0625 1.296875 2.78125q0.390625 1.703125 0.390625 4.515625l0 15.0625q0 2.359375 0.8125 3.203125q0.8125 0.84375 2.78125 0.84375l0 1.171875q-1.078125 -0.0625 -3.203125 -0.140625q-2.125 -0.078125 -4.203125 -0.078125q-2.015625 0 -3.984375 0.078125q-1.953125 0.078125 -2.96875 0.140625l0 -1.171875q1.515625 0 2.109375 -0.84375q0.59375 -0.84375 0.59375 -3.203125l0 -17.421875q0 -1.40625 -0.265625 -2.4375q-0.25 -1.046875 -0.953125 -1.625q-0.6875 -0.59375 -2.15625 -0.59375q-1.453125 0 -2.6875 0.90625q-1.234375 0.890625 -2.0 2.40625q-0.75 1.515625 -0.796875 3.359375l-0.28125 -3.421875q1.515625 -3.359375 4.0 -4.53125q2.5 -1.1875 5.359375 -1.1875zm27.972534 0q4.921875 0 7.71875 2.921875q2.8125 2.90625 2.8125 9.53125l-18.4375 0l-0.109375 -1.078125l11.484375 0q0.0625 -2.734375 -0.34375 -5.0625q-0.390625 -2.328125 -1.234375 -3.71875q-0.828125 -1.40625 -2.234375 -1.40625q-1.96875 0 -3.34375 2.46875q-1.359375 2.453125 -1.640625 8.171875l0.171875 0.34375q-0.0625 0.671875 -0.09375 1.40625q-0.03125 0.71875 -0.03125 1.5q0 3.875 1.09375 6.28125q1.09375 2.40625 2.765625 3.5q1.6875 1.09375 3.4375 1.09375q1.171875 0 2.421875 -0.359375q1.265625 -0.375 2.546875 -1.34375q1.296875 -0.984375 2.421875 -2.78125l1.015625 0.34375q-0.671875 2.125 -2.140625 4.140625q-1.453125 2.015625 -3.703125 3.3125q-2.234375 1.28125 -5.375 1.28125q-3.8125 0 -6.734375 -1.625q-2.90625 -1.625 -4.5625 -4.921875q-1.640625 -3.3125 -1.640625 -8.421875q0 -5.203125 1.765625 -8.671875q1.765625 -3.484375 4.875 -5.1875q3.109375 -1.71875 7.09375 -1.71875z" fill-rule="nonzero"/></g></svg>